<?xml version="1.0" encoding="iso-8859-1"?>
<!-- Generator: Adobe Illustrator 19.0.0, SVG Export Plug-In . SVG Version: 6.00 Build 0)  -->
<svg xmlns="http://www.w3.org/2000/svg" xmlns:xlink="http://www.w3.org/1999/xlink" version="1.1" id="Layer_1" x="0px" y="0px" viewBox="0 0 512 512" style="enable-background:new 0 0 512 512;" xml:space="preserve" width="512px" height="512px">
<g>
	<g>
		<path d="M488.727,204.8l-23.273,12.412L266.952,323.08c-0.074,0.039-0.151,0.071-0.225,0.11c-0.23,0.119-0.465,0.234-0.7,0.346    c-0.239,0.115-0.479,0.225-0.721,0.331c-0.191,0.084-0.383,0.163-0.576,0.242c-0.299,0.121-0.6,0.236-0.901,0.344    c-0.149,0.053-0.298,0.105-0.448,0.157c-0.355,0.119-0.711,0.227-1.067,0.329c-0.112,0.031-0.223,0.064-0.335,0.093    c-0.399,0.107-0.797,0.2-1.198,0.284c-0.087,0.019-0.171,0.039-0.258,0.056c-0.431,0.085-0.863,0.157-1.296,0.217    c-0.065,0.009-0.13,0.022-0.195,0.029c-0.469,0.062-0.939,0.109-1.406,0.141c-0.034,0.002-0.071,0.008-0.107,0.009    c-0.5,0.033-0.998,0.051-1.497,0.051c-0.008,0-0.016-0.002-0.022-0.002s-0.014,0.002-0.022,0.002    c-0.498,0-0.998-0.019-1.499-0.051c-0.034-0.002-0.068-0.006-0.104-0.009c-0.47-0.033-0.939-0.081-1.409-0.143    c-0.064-0.008-0.124-0.02-0.188-0.028c-0.436-0.062-0.87-0.133-1.306-0.22c-0.082-0.017-0.163-0.036-0.245-0.053    c-0.405-0.085-0.807-0.18-1.207-0.287c-0.11-0.029-0.222-0.062-0.331-0.093c-0.358-0.101-0.715-0.211-1.071-0.329    c-0.15-0.051-0.298-0.102-0.447-0.157c-0.301-0.107-0.599-0.222-0.897-0.343c-0.197-0.079-0.393-0.161-0.586-0.245    c-0.236-0.104-0.473-0.214-0.708-0.326c-0.24-0.115-0.479-0.231-0.715-0.352c-0.071-0.037-0.146-0.07-0.217-0.107L46.545,217.212    L23.273,204.8L0,192.388v234.279c0,12.853,10.42,23.273,23.273,23.273h465.455c12.853,0,23.273-10.42,23.273-23.273V192.388    L488.727,204.8z" fill="#FFFFFF"/>
	</g>
</g>
<g>
	<g>
		<path d="M488.727,62.061H23.273C10.42,62.061,0,72.481,0,85.333v54.303l23.273,12.412l23.273,12.412L256,276.17l209.455-111.709    l23.273-12.412L512,139.636V85.333C512,72.481,501.58,62.061,488.727,62.061z" fill="#FFFFFF"/>
	</g>
</g>
<g>
</g>
<g>
</g>
<g>
</g>
<g>
</g>
<g>
</g>
<g>
</g>
<g>
</g>
<g>
</g>
<g>
</g>
<g>
</g>
<g>
</g>
<g>
</g>
<g>
</g>
<g>
</g>
<g>
</g>
</svg>
