<?xml version="1.0" encoding="iso-8859-1"?>
<!-- Generator: Adobe Illustrator 19.0.0, SVG Export Plug-In . SVG Version: 6.00 Build 0)  -->
<svg xmlns="http://www.w3.org/2000/svg" xmlns:xlink="http://www.w3.org/1999/xlink" version="1.1" id="Layer_1" x="0px" y="0px" viewBox="0 0 512 512" style="enable-background:new 0 0 512 512;" xml:space="preserve" width="512px" height="512px">
<g>
	<g>
		<path d="M488.727,62.061H23.273C10.42,62.061,0,72.481,0,85.333v93.154c0,0.054,0,0.109,0,0.163v248.016    c0,12.853,10.42,23.273,23.273,23.273h465.455c12.853,0,23.273-10.42,23.273-23.273V178.651c0-0.054,0-0.109,0-0.163V85.333    C512,72.481,501.58,62.061,488.727,62.061z M465.455,403.394H46.545V217.212L245.048,323.08c3.423,1.825,7.187,2.738,10.952,2.738    c3.766,0,7.528-0.912,10.952-2.738l198.502-105.868V403.394z M465.455,164.461L256,276.17L46.545,164.461v-55.855h418.909V164.461    z" fill="#144482"/>
	</g>
</g>
<g>
</g>
<g>
</g>
<g>
</g>
<g>
</g>
<g>
</g>
<g>
</g>
<g>
</g>
<g>
</g>
<g>
</g>
<g>
</g>
<g>
</g>
<g>
</g>
<g>
</g>
<g>
</g>
<g>
</g>
</svg>
